<svg xmlns="http://www.w3.org/2000/svg" version="1.1" x="0px" y="0px" viewBox="0 0 100 100" 
     enable-background="new 0 0 100 100">
     <g fill="#159ef2">
     <path d="M85.873,38.396C83.612,17.955,75.479,1,51.266,1c-22.438,0-33.062,17.143-36.04,38.131  C1.523,10.767,6.68,33.056,8.319,49.207c0.436,4.291,3.146,7.887,7.228,8.614C19.153,69.923,30.752,97.6,51.266,97.6  c22.842,0,31.951-29.161,34.532-39.906c3.744-0.959,6.211-4.41,6.624-8.486C94.047,33.199,99.124,11.172,85.873,38.396z   M32.942,47.312c0,0-8.766,0.013-8.766-5.082c0-4.917,8.318-5.31,9.048-5.31c5.81,0,11.265,1.421,11.265,5.31  C44.489,46.558,38.75,47.312,32.942,47.312z M63.766,47.312c0,0-8.765,0.013-8.765-5.082c0-4.917,8.318-5.31,9.048-5.31  c5.811,0,11.266,1.421,11.266,5.31C75.314,46.558,69.574,47.312,63.766,47.312z"/>
     <path d="M15.897,40.531c-14.54-30.479-9.244-7.733-7.578,8.676c0.448,4.414,3.3,8.102,7.578,8.679V40.531z"/><path d="M15.417,48.719c-7.432-15.576-4.725-3.953-3.873,4.435c0.229,2.256,1.687,4.139,3.873,4.434V48.719z"/>
     <path d="M15.417,48.719c-7.432-15.576-4.725-3.953-3.873,4.435c0.229,2.256,1.687,4.139,3.873,4.434V48.719z"/>
     <path d="M84.844,40.531c14.541-30.479,9.244-7.733,7.578,8.676c-0.447,4.414-3.299,8.102-7.578,8.679V40.531z"/>
     <path d="M85.326,48.719c7.431-15.576,4.724-3.953,3.872,4.435c-0.229,2.256-1.686,4.139-3.872,4.434V48.719z"/>
     <path d="M85.326,48.719c7.431-15.576,4.724-3.953,3.872,4.435c-0.229,2.256-1.686,4.139-3.872,4.434V48.719z"/>
     <path d="M26.224,11.12"/>
     <path d="M84.362,19.399"/>
     </g>
</svg>