<svg height='100px' width='100px' fill="#68217A"
     xmlns="http://www.w3.org/2000/svg"
     version="1.1" x="0px" y="0px" 
     viewBox="0 0 75 75" 
     style="enable-background:new 0 0 60 60;" 
     xml:space="preserve">
    <g transform="translate(-10, -12)">
        <path d="M62.193,73.508c-1.714,0-3.493-0.036-5.304-0.072c-1.587-0.032-3.199-0.064-4.815-0.073       c-13.771-0.075-27.918-0.51-28.059-0.515c-0.452-0.014-0.885-0.18-1.229-0.472c-5.621-4.754-8.966-11.698-9.176-19.053       C13.2,39.04,24.489,27.085,38.773,26.677c1.264-0.037,4.709-0.018,6.86-0.008l1.558,0.007c8.531,0,16.902,4.787,24.209,13.843       c5.134,6.364,8.023,12.648,8.392,13.471c1.161,2.197,1.264,7.066,1.136,8.56C80.868,73.508,68.725,73.508,62.193,73.508z        M24.853,68.871c3.039,0.089,15.286,0.427,27.243,0.492c1.635,0.009,3.268,0.042,4.874,0.074       c1.784,0.036,3.536,0.071,5.224,0.071c11.016,0,14.734-1.776,14.734-7.039c0-0.139,0.015-0.278,0.043-0.414       c0.118-0.958-0.128-5.156-0.717-6.199c-0.033-0.058-0.063-0.119-0.09-0.18c-0.11-0.25-11.187-25.001-28.973-25.001       l-1.579-0.007c-2.104-0.011-5.488-0.03-6.724,0.006c-12.08,0.346-21.626,10.455-21.281,22.535       C17.779,59.2,20.41,64.87,24.853,68.871z" />
        <path d="M78.269,57.084H52.107c-4.234,0-7.679-3.445-7.679-7.679c0-4.027,3.091-7.34,7.081-7.647       c0.092-0.029,0.189-0.045,0.29-0.045h18.058c0.552,0,1,0.448,1,1s-0.448,1-1,1H52.036c-0.061,0.016-0.125,0.025-0.19,0.028       c-3.037,0.139-5.417,2.626-5.417,5.664c0,3.131,2.547,5.679,5.679,5.679h26.162c0.552,0,1,0.448,1,1       S78.821,57.084,78.269,57.084z" />
    </g>
</svg>